<?xml version="1.0" encoding="utf-8"?>
<!-- Generator: Adobe Illustrator 15.0.0, SVG Export Plug-In . SVG Version: 6.00 Build 0)  -->
<!DOCTYPE svg PUBLIC "-//W3C//DTD SVG 1.1//EN" "http://www.w3.org/Graphics/SVG/1.1/DTD/svg11.dtd">
<svg version="1.1" id="Layer_1" xmlns="http://www.w3.org/2000/svg" xmlns:xlink="http://www.w3.org/1999/xlink" x="0px" y="0px"
	 width="102.25px" height="22.5px" viewBox="22.365 54.865 102.25 22.5" enable-background="new 22.365 54.865 102.25 22.5"
	 xml:space="preserve">
<path fill="#ECE70D" d="M24.466,72.254l2.594-3.097c1.68,1.32,3.504,2.017,5.447,2.017c1.272,0,1.944-0.433,1.944-1.15v-0.048
	c0-0.722-0.552-1.08-2.854-1.634c-3.576-0.814-6.338-1.822-6.338-5.257v-0.048c0-3.12,2.474-5.377,6.506-5.377
	c2.854,0,5.088,0.771,6.911,2.232l-2.326,3.288c-1.536-1.104-3.218-1.656-4.705-1.656c-1.128,0-1.682,0.456-1.682,1.08v0.049
	c0,0.768,0.576,1.104,2.93,1.632c3.84,0.84,6.239,2.088,6.239,5.232v0.048c0,3.433-2.712,5.473-6.792,5.473
	C29.362,75.038,26.554,74.101,24.466,72.254z"/>
<path fill="#ECE70D" d="M45.01,62.029h-5.016v-4.081h14.713v4.081h-5.041V74.75H45.01V62.029z"/>
<path fill="#ECE70D" d="M56.553,67.382v-9.434h4.703v9.337c0,2.425,1.226,3.576,3.098,3.576c1.896,0,3.121-1.104,3.121-3.456v-9.457
	h4.705v9.312c0,5.4-3.099,7.803-7.873,7.803C59.554,75.062,56.553,72.637,56.553,67.382z"/>
<path fill="#ECE70D" d="M74.937,57.948h6.505c5.977,0,9.457,3.457,9.457,8.305v0.048c0,4.851-3.528,8.449-9.554,8.449h-6.408V57.948
	z M79.594,62.052v8.569h1.896c2.809,0,4.656-1.536,4.656-4.249v-0.048c0-2.688-1.85-4.272-4.656-4.272H79.594z"/>
<path fill="#ECE70D" d="M93.441,57.948h4.656V74.75h-4.656V57.948z"/>
<path fill="#ECE70D" d="M106.042,68.462l-6.408-10.514h5.307l3.456,6.121l3.479-6.121h5.208l-6.385,10.441v6.358h-4.656V68.462
	L106.042,68.462z"/>
<circle fill="#ECE70D" cx="118.025" cy="71.806" r="2.942"/>
</svg>
